<?xml version="1.0" encoding="UTF-8" standalone="no"?>
<!DOCTYPE svg PUBLIC "-//W3C//DTD SVG 1.1//EN" "http://www.w3.org/Graphics/SVG/1.1/DTD/svg11.dtd">
<svg width="100%" height="100%" viewBox="0 0 512 512" version="1.1" xmlns="http://www.w3.org/2000/svg" xmlns:xlink="http://www.w3.org/1999/xlink" xml:space="preserve" xmlns:serif="http://www.serif.com/" style="fill-rule:evenodd;clip-rule:evenodd;stroke-linejoin:round;stroke-miterlimit:2;">
    <g id="bg" transform="matrix(2.56,0,0,2.56,0,3.63798e-14)">
        <path d="M0,100C0,16 16,0 100,0C184,0 200,16 200,100C200,184 184,200 100,200C16,200 0,184 0,100" style="fill:rgb(243,128,32);fill-rule:nonzero;"/>
    </g>
    <g transform="matrix(12.0005,0,0,12.0005,111.994,111.994)">
        <path d="M16.509,16.845C16.656,16.338 16.6,15.874 16.354,15.529C16.129,15.213 15.749,15.03 15.292,15.009L6.633,14.897C6.579,14.897 6.529,14.87 6.499,14.825C6.471,14.783 6.464,14.727 6.478,14.67C6.506,14.586 6.591,14.521 6.682,14.514L15.418,14.401C16.453,14.352 17.578,13.515 17.972,12.488L18.471,11.186C18.492,11.13 18.5,11.074 18.485,11.019C17.923,8.472 15.65,6.573 12.935,6.573C10.432,6.573 8.307,8.191 7.548,10.435C7.055,10.069 6.429,9.872 5.754,9.936C4.551,10.055 3.587,11.019 3.468,12.221C3.439,12.531 3.461,12.834 3.531,13.115C1.568,13.171 0,14.775 0,16.752C0,16.927 0.014,17.104 0.035,17.279C0.049,17.362 0.12,17.427 0.204,17.427L16.186,17.427C16.276,17.427 16.361,17.362 16.389,17.272L16.509,16.845L16.509,16.845ZM19.266,11.281C19.188,11.281 19.104,11.281 19.027,11.293C18.971,11.293 18.922,11.334 18.9,11.39L18.563,12.565C18.415,13.071 18.471,13.535 18.717,13.881C18.942,14.197 19.322,14.379 19.779,14.4L21.623,14.514C21.679,14.514 21.728,14.54 21.756,14.584C21.784,14.627 21.791,14.691 21.777,14.74C21.749,14.824 21.664,14.889 21.573,14.896L19.652,15.008C18.611,15.057 17.494,15.895 17.1,16.922L16.959,17.28C16.931,17.352 16.98,17.422 17.058,17.422L23.655,17.422C23.732,17.422 23.803,17.373 23.824,17.296C23.937,16.888 24,16.459 24,16.016C24,13.413 21.875,11.289 19.266,11.289" style="fill:white;fill-rule:nonzero;"/>
    </g>
</svg>
