<?xml version="1.0" encoding="UTF-8" standalone="no"?>
<!DOCTYPE svg PUBLIC "-//W3C//DTD SVG 1.1//EN" "http://www.w3.org/Graphics/SVG/1.1/DTD/svg11.dtd">
<svg width="100%" height="100%" viewBox="0 0 512 512" version="1.1" xmlns="http://www.w3.org/2000/svg" xmlns:xlink="http://www.w3.org/1999/xlink" xml:space="preserve" xmlns:serif="http://www.serif.com/" style="fill-rule:evenodd;clip-rule:evenodd;stroke-linejoin:round;stroke-miterlimit:2;">
    <g id="bg" transform="matrix(2.56,0,0,2.56,0,3.63798e-14)">
        <path d="M0,100C0,16 16,0 100,0C184,0 200,16 200,100C200,184 184,200 100,200C16,200 0,184 0,100" style="fill:rgb(82,181,75);fill-rule:nonzero;"/>
    </g>
    <g id="fg" transform="matrix(12,0,0,12,111.994,112)">
        <path d="M11.041,0C11.034,0 9.585,1.43 7.822,3.176L4.615,6.352L5.127,6.865L5.639,7.377L2.82,10.168L0,12.961L1.83,14.809C2.836,15.825 4.268,17.269 5.012,18.018L6.363,19.377L6.871,18.881C7.151,18.608 7.386,18.383 7.395,18.383C7.403,18.383 8.661,19.647 10.189,21.191L12.97,24L13.157,23.818C13.387,23.593 18.164,18.868 18.874,18.162L19.394,17.646L18.892,17.133C18.616,16.851 18.392,16.613 18.396,16.603C18.399,16.594 19.66,15.343 21.198,13.82C22.736,12.298 23.998,11.044 24.001,11.035C24.006,11.023 20.384,7.351 17.894,4.842L17.65,4.6L17.145,5.105C16.866,5.383 16.628,5.606 16.615,5.602C16.602,5.597 15.345,4.335 13.822,2.797C12.899,1.861 11.972,0.928 11.041,-0ZM9.223,7.367C9.314,7.405 17.174,11.975 17.18,11.994C17.183,12.007 15.399,13.05 13.215,14.314C11.885,15.086 10.553,15.855 9.219,16.621C9.2,16.627 9.193,15.355 9.193,11.992C9.193,8.292 9.2,7.358 9.223,7.367Z" style="fill:white;fill-rule:nonzero;"/>
    </g>
</svg>
