<?xml version="1.0" encoding="UTF-8" standalone="no"?>
<!DOCTYPE svg PUBLIC "-//W3C//DTD SVG 1.1//EN" "http://www.w3.org/Graphics/SVG/1.1/DTD/svg11.dtd">
<svg width="100%" height="100%" viewBox="0 0 512 512" version="1.1" xmlns="http://www.w3.org/2000/svg" xmlns:xlink="http://www.w3.org/1999/xlink" xml:space="preserve" xmlns:serif="http://www.serif.com/" style="fill-rule:evenodd;clip-rule:evenodd;stroke-linejoin:round;stroke-miterlimit:2;">
    <g id="bg" transform="matrix(2.56,0,0,2.56,0,3.63798e-14)">
        <path d="M0,100C0,16 16,0 100,0C184,0 200,16 200,100C200,184 184,200 100,200C16,200 0,184 0,100" style="fill:rgb(244,104,0);fill-rule:nonzero;"/>
    </g>
    <g transform="matrix(13.0357,0,0,13.0357,99.571,99.5721)">
        <path d="M23.02,10.59C22.923,9.534 22.63,8.505 22.158,7.556C21.706,6.645 21.101,5.818 20.369,5.111C20.706,3.769 19.956,2.606 19.956,2.606C18.664,2.526 17.843,3.006 17.54,3.226C17.488,3.206 17.438,3.182 17.386,3.162C17.166,3.073 16.94,2.99 16.709,2.915C16.478,2.842 16.239,2.775 15.998,2.718C15.709,2.651 15.417,2.597 15.123,2.557C14.557,0.753 12.94,0 12.94,0C11.136,1.145 10.793,2.744 10.793,2.744L10.775,2.837C10.677,2.866 10.575,2.894 10.477,2.925C10.339,2.967 10.202,3.019 10.064,3.068C9.926,3.123 9.789,3.175 9.654,3.234C9.107,3.471 8.585,3.762 8.097,4.104L8.034,4.075C5.537,3.12 3.318,4.27 3.318,4.27C3.115,6.928 4.314,8.6 4.553,8.906C4.249,9.758 4.045,10.642 3.946,11.541C1.636,12.677 0.953,15.014 0.953,15.014C2.879,17.228 5.124,17.365 5.124,17.365C5.127,17.363 5.13,17.363 5.13,17.36C5.415,17.869 5.745,18.354 6.116,18.806C6.272,18.996 6.436,19.177 6.604,19.354C5.9,21.363 6.703,23.034 6.703,23.034C8.847,23.114 10.256,22.097 10.552,21.861C11.572,22.201 12.641,22.37 13.716,22.362L13.796,22.362L13.851,22.359L13.958,22.357L14.061,22.352L14.064,22.354C15.074,23.794 16.852,24 16.852,24C18.116,22.668 18.189,21.347 18.189,21.06L18.189,21.002C18.189,20.982 18.186,20.963 18.186,20.942C18.451,20.755 18.706,20.555 18.944,20.342C19.493,19.845 19.97,19.272 20.359,18.642C21.789,18.725 22.796,17.757 22.796,17.757C22.56,16.267 21.711,15.541 21.532,15.403L21.514,15.39L21.498,15.377C21.487,15.371 21.477,15.365 21.467,15.357C21.475,15.265 21.483,15.177 21.487,15.087C21.498,14.925 21.503,14.764 21.503,14.607L21.503,14.354L21.498,14.256L21.49,14.121C21.488,14.078 21.485,14.034 21.48,13.991C21.477,13.949 21.472,13.908 21.467,13.866L21.451,13.742L21.433,13.62C21.215,12.177 20.495,10.856 19.401,9.89C18.498,9.091 17.375,8.583 16.179,8.43C15.897,8.395 15.613,8.379 15.329,8.382L15.222,8.384L15.159,8.384L15.115,8.387L15.011,8.395C13.716,8.483 12.511,9.096 11.676,10.09C11.344,10.49 11.084,10.93 10.908,11.387C10.682,11.965 10.576,12.583 10.596,13.204L10.599,13.295C10.604,13.35 10.606,13.405 10.612,13.459C10.674,14.118 10.915,14.748 11.31,15.279C11.764,15.893 12.406,16.343 13.137,16.561C13.467,16.659 13.797,16.701 14.108,16.698C14.147,16.698 14.186,16.698 14.222,16.696L14.285,16.693C14.305,16.693 14.326,16.69 14.347,16.69C14.381,16.688 14.412,16.683 14.446,16.68C14.453,16.68 14.464,16.677 14.474,16.677L14.505,16.672L14.565,16.664C14.603,16.659 14.64,16.652 14.677,16.644C14.713,16.636 14.749,16.631 14.786,16.62C15.114,16.542 15.425,16.401 15.7,16.205C15.728,16.185 15.756,16.164 15.785,16.14C15.844,16.093 15.879,16.021 15.879,15.946C15.879,15.889 15.86,15.834 15.824,15.79C15.75,15.698 15.618,15.672 15.515,15.73L15.437,15.772C15.347,15.816 15.253,15.855 15.154,15.888C14.999,15.935 14.84,15.968 14.679,15.984C14.651,15.987 14.625,15.99 14.596,15.99L14.513,15.992C14.487,15.992 14.459,15.992 14.433,15.99L14.331,15.984L14.319,15.984L14.295,15.99C14.279,15.987 14.264,15.987 14.251,15.984C14.22,15.982 14.191,15.977 14.16,15.974C13.91,15.939 13.666,15.867 13.436,15.761C13.192,15.651 12.967,15.503 12.769,15.323C12.34,14.938 12.056,14.417 11.964,13.848C11.94,13.701 11.93,13.553 11.935,13.404L11.941,13.282L11.941,13.259L11.943,13.228C11.946,13.207 11.946,13.188 11.948,13.168C12.04,12.244 12.535,11.405 13.3,10.878C13.586,10.684 13.903,10.538 14.237,10.448C14.49,10.38 14.751,10.346 15.013,10.347L15.073,10.347L15.143,10.349L15.188,10.352L15.214,10.352L15.284,10.357C15.858,10.402 16.415,10.569 16.919,10.847C17.607,11.229 18.165,11.808 18.521,12.509C18.745,12.95 18.88,13.43 18.918,13.923L18.923,13.999L18.926,14.074C18.928,14.1 18.928,14.124 18.928,14.149C18.928,14.173 18.931,14.201 18.928,14.219L18.928,14.284L18.926,14.357L18.918,14.531C18.902,14.745 18.876,14.959 18.838,15.17C18.778,15.487 18.689,15.797 18.571,16.097C18.41,16.498 18.2,16.877 17.947,17.227C17.173,18.295 16.01,19.018 14.71,19.241C14.495,19.278 14.279,19.3 14.061,19.307L14.022,19.31L13.735,19.31C13.154,19.298 12.577,19.208 12.019,19.045C10.679,18.655 9.491,17.861 8.619,16.771C8.332,16.414 8.082,16.029 7.873,15.621C7.46,14.814 7.217,13.93 7.159,13.025L7.154,12.942L7.152,12.922L7.152,12.866L7.149,12.793L7.149,12.697L7.146,12.593L7.146,12.523L7.149,12.36C7.157,12.14 7.175,11.91 7.203,11.682C7.26,11.224 7.354,10.771 7.483,10.327C7.611,9.883 7.769,9.455 7.956,9.05C8.309,8.267 8.803,7.555 9.412,6.95C9.703,6.664 10.022,6.408 10.365,6.187C10.534,6.076 10.708,5.974 10.889,5.881C10.978,5.831 11.071,5.79 11.162,5.746C11.209,5.726 11.255,5.704 11.3,5.684C11.533,5.582 11.771,5.493 12.014,5.417L12.159,5.372C12.208,5.357 12.257,5.346 12.307,5.331C12.405,5.302 12.504,5.279 12.603,5.255C12.652,5.242 12.703,5.235 12.753,5.222L12.903,5.19L13.054,5.162L13.13,5.149L13.205,5.139L13.358,5.115C13.415,5.105 13.472,5.102 13.529,5.092L13.698,5.071C13.734,5.068 13.771,5.063 13.804,5.061L13.877,5.053L13.913,5.05L13.955,5.048C14.012,5.045 14.069,5.04 14.126,5.038L14.212,5.032L14.235,5.032L14.272,5.029L14.417,5.022C14.989,5.002 15.562,5.044 16.125,5.147C16.835,5.279 17.525,5.508 18.173,5.827C18.772,6.121 19.334,6.487 19.845,6.917L19.935,6.994L20.024,7.072C20.084,7.124 20.138,7.179 20.195,7.231C20.252,7.283 20.307,7.337 20.361,7.391C20.413,7.446 20.468,7.498 20.52,7.555C21.08,8.145 21.555,8.811 21.93,9.533C21.942,9.559 21.958,9.585 21.97,9.611L22.01,9.689L22.085,9.845C22.108,9.896 22.135,9.945 22.155,9.998L22.22,10.148C22.405,10.582 22.556,11.03 22.67,11.488C22.693,11.578 22.779,11.638 22.871,11.63C22.967,11.623 23.042,11.542 23.043,11.446C23.053,11.2 23.045,10.914 23.019,10.59L23.02,10.59Z" style="fill:white;fill-rule:nonzero;"/>
    </g>
</svg>
