<?xml version="1.0" encoding="UTF-8" standalone="no"?>
<!DOCTYPE svg PUBLIC "-//W3C//DTD SVG 1.1//EN" "http://www.w3.org/Graphics/SVG/1.1/DTD/svg11.dtd">
<svg width="100%" height="100%" viewBox="0 0 512 512" version="1.1" xmlns="http://www.w3.org/2000/svg" xmlns:xlink="http://www.w3.org/1999/xlink" xml:space="preserve" xmlns:serif="http://www.serif.com/" style="fill-rule:evenodd;clip-rule:evenodd;stroke-linejoin:round;stroke-miterlimit:2;">
    <g id="bg" transform="matrix(2.56,0,0,2.56,0,3.63798e-14)">
        <path d="M0,100C0,16 16,0 100,0C184,0 200,16 200,100C200,184 184,200 100,200C16,200 0,184 0,100" style="fill:rgb(65,189,245);fill-rule:nonzero;"/>
    </g>
    <g transform="matrix(12.0007,0,0,12.0007,111.994,111.992)">
        <path d="M11.992,1.395C11.805,1.396 11.625,1.472 11.494,1.606L0.162,13.098C0.058,13.203 -0,13.346 -0,13.494C0,13.805 0.256,14.06 0.566,14.06L2.67,14.06L2.67,22.135C2.67,22.395 2.88,22.605 3.141,22.605L11.088,22.605L11.088,18.922L8.037,15.867C7.737,15.995 7.415,16.06 7.09,16.061C5.752,16.061 4.668,14.974 4.668,13.635C4.668,12.296 5.752,11.211 7.09,11.211C8.428,11.211 9.512,12.296 9.512,13.635C9.512,13.971 9.444,14.291 9.32,14.582L11.088,16.35L11.088,10.975C10.2,10.615 9.572,9.744 9.572,8.727C9.572,7.388 10.658,6.301 11.996,6.301C13.334,6.301 14.418,7.388 14.418,8.727C14.418,9.744 13.792,10.615 12.904,10.975L12.904,16.35L14.67,14.582C14.543,14.282 14.478,13.96 14.478,13.635C14.478,12.296 15.564,11.211 16.902,11.211C18.24,11.211 19.324,12.296 19.324,13.635C19.324,14.974 18.24,16.06 16.902,16.06C16.577,16.06 16.255,15.995 15.955,15.867L12.904,18.922L12.904,22.606L20.852,22.606C20.852,22.606 20.852,22.606 20.852,22.606C21.11,22.606 21.322,22.393 21.322,22.135C21.322,22.135 21.322,22.135 21.322,22.135L21.322,14.06L23.434,14.06C23.582,14.06 23.724,14.002 23.83,13.898C24.053,13.68 24.056,13.321 23.838,13.098L21.322,10.525L21.322,6.471C21.322,6.21 21.112,5.998 20.852,5.998L18.887,5.998C18.626,5.998 18.416,6.21 18.416,6.471L18.416,7.574L12.5,1.604C12.366,1.468 12.183,1.393 11.992,1.394ZM11.996,7.756C11.461,7.756 11.027,8.191 11.027,8.727C11.027,9.262 11.461,9.695 11.996,9.695C11.996,9.695 11.996,9.695 11.997,9.695C12.528,9.695 12.965,9.258 12.965,8.727C12.965,8.727 12.965,8.727 12.965,8.727C12.965,8.191 12.531,7.756 11.996,7.756ZM7.09,12.666L7.089,12.666C6.558,12.666 6.121,13.103 6.121,13.634C6.121,13.634 6.121,13.635 6.121,13.635C6.121,14.17 6.555,14.606 7.09,14.606C7.625,14.606 8.059,14.17 8.059,13.635C8.059,13.635 8.059,13.634 8.059,13.634C8.059,13.103 7.621,12.666 7.09,12.666ZM16.902,12.666C16.367,12.666 15.932,13.099 15.932,13.635C15.932,14.17 16.367,14.606 16.902,14.606C17.438,14.606 17.871,14.17 17.871,13.635C17.871,13.635 17.871,13.634 17.871,13.634C17.871,13.103 17.434,12.666 16.903,12.666C16.903,12.666 16.902,12.666 16.902,12.666Z" style="fill:white;fill-rule:nonzero;"/>
    </g>
</svg>
