<?xml version="1.0" encoding="UTF-8" standalone="no"?>
<!DOCTYPE svg PUBLIC "-//W3C//DTD SVG 1.1//EN" "http://www.w3.org/Graphics/SVG/1.1/DTD/svg11.dtd">
<svg width="100%" height="100%" viewBox="0 0 512 512" version="1.1" xmlns="http://www.w3.org/2000/svg" xmlns:xlink="http://www.w3.org/1999/xlink" xml:space="preserve" xmlns:serif="http://www.serif.com/" style="fill-rule:evenodd;clip-rule:evenodd;stroke-linejoin:round;stroke-miterlimit:2;">
    <g id="bg" transform="matrix(2.56,0,0,2.56,0,3.63798e-14)">
        <path d="M0,100C0,16 16,0 100,0C184,0 200,16 200,100C200,184 184,200 100,200C16,200 0,184 0,100" style="fill:rgb(0,164,220);fill-rule:nonzero;"/>
    </g>
    <g transform="matrix(12.0005,0,0,12.0005,111.999,111.996)">
        <path d="M12,0.002C8.826,0.002 -1.398,18.537 0.16,21.666C1.72,24.795 22.3,24.76 23.842,21.666C25.384,18.573 15.177,0 12,0L12,0.002ZM19.76,18.951C18.752,20.979 5.267,21.001 4.246,18.951C3.224,16.9 9.92,4.755 12.003,4.755C14.084,4.755 20.773,16.921 19.762,18.951L19.76,18.951ZM12,9.198C10.946,9.198 7.554,15.348 8.07,16.387C8.588,17.427 15.418,17.414 15.93,16.387C16.441,15.36 13.056,9.197 12,9.197L12,9.198Z" style="fill:white;fill-rule:nonzero;"/>
    </g>
</svg>
