<?xml version="1.0" encoding="UTF-8" standalone="no"?>
<!DOCTYPE svg PUBLIC "-//W3C//DTD SVG 1.1//EN" "http://www.w3.org/Graphics/SVG/1.1/DTD/svg11.dtd">
<svg width="100%" height="100%" viewBox="0 0 512 512" version="1.1" xmlns="http://www.w3.org/2000/svg" xmlns:xlink="http://www.w3.org/1999/xlink" xml:space="preserve" xmlns:serif="http://www.serif.com/" style="fill-rule:evenodd;clip-rule:evenodd;stroke-linejoin:round;stroke-miterlimit:2;">
    <g id="bg" transform="matrix(2.56,0,0,2.56,0,3.63798e-14)">
        <path d="M0,100C0,16 16,0 100,0C184,0 200,16 200,100C200,184 184,200 100,200C16,200 0,184 0,100" style="fill:rgb(0,130,201);fill-rule:nonzero;"/>
    </g>
    <g id="fg" transform="matrix(12.0005,0,0,12.0005,111.994,111.994)">
        <path d="M12.018,6.537C9.518,6.537 7.418,8.249 6.777,10.552C6.217,9.32 4.984,8.447 3.552,8.447C1.607,8.456 0.009,10.055 0,12C0.009,13.945 1.607,15.544 3.552,15.553C4.984,15.553 6.216,14.679 6.776,13.447C7.417,15.751 9.518,17.463 12.018,17.463C14.505,17.463 16.594,15.77 17.249,13.486C17.818,14.696 19.032,15.553 20.447,15.553C22.393,15.545 23.992,13.946 24,12C23.991,10.054 22.393,8.456 20.447,8.447C19.031,8.447 17.817,9.305 17.248,10.514C16.594,8.23 14.505,6.536 12.018,6.537ZM12.018,8.622C13.896,8.622 15.396,10.122 15.396,12C15.396,13.878 13.896,15.378 12.018,15.378C12.013,15.378 12.008,15.378 12.003,15.378C10.159,15.378 8.641,13.86 8.641,12.016C8.641,12.011 8.641,12.005 8.641,12C8.641,10.122 10.141,8.622 12.018,8.622ZM3.552,10.532C4.374,10.532 5.019,11.177 5.019,12C5.019,12.823 4.375,13.467 3.552,13.468C3.547,13.468 3.542,13.468 3.537,13.468C2.74,13.468 2.085,12.813 2.085,12.016C2.085,12.011 2.085,12.005 2.085,12C2.085,11.177 2.729,10.533 3.552,10.533L3.552,10.532ZM20.447,10.532C21.27,10.532 21.915,11.177 21.915,12C21.915,12.823 21.27,13.468 20.447,13.468C20.442,13.468 20.437,13.468 20.432,13.468C19.635,13.468 18.98,12.813 18.98,12.016C18.98,12.011 18.98,12.005 18.98,12C18.98,11.177 19.624,10.533 20.447,10.533L20.447,10.532Z" style="fill:white;fill-rule:nonzero;"/>
    </g>
</svg>
