<?xml version="1.0" encoding="UTF-8" standalone="no"?>
<!DOCTYPE svg PUBLIC "-//W3C//DTD SVG 1.1//EN" "http://www.w3.org/Graphics/SVG/1.1/DTD/svg11.dtd">
<svg width="100%" height="100%" viewBox="0 0 512 512" version="1.1" xmlns="http://www.w3.org/2000/svg" xmlns:xlink="http://www.w3.org/1999/xlink" xml:space="preserve" xmlns:serif="http://www.serif.com/" style="fill-rule:evenodd;clip-rule:evenodd;stroke-linejoin:round;stroke-miterlimit:2;">
    <g id="bg" transform="matrix(2.56,0,0,2.56,0,3.63798e-14)">
        <path d="M0,100C0,16 16,0 100,0C184,0 200,16 200,100C200,184 184,200 100,200C16,200 0,184 0,100" style="fill:rgb(108,120,175);fill-rule:nonzero;"/>
    </g>
    <g transform="matrix(12.0005,0,0,12.0005,111.994,111.993)">
        <path d="M5.463,3.476C6.69,5.225 7.497,7.399 7.68,9.798C7.822,11.577 7.593,13.366 7.008,15.052C7.751,14.165 8.823,13.615 9.977,13.529C10.027,13.525 10.076,13.523 10.125,13.521C10.205,13.03 10.595,10.071 9.148,6.841C8.08,4.455 6.148,3.681 5.463,3.476ZM7.24,3.513C7.24,3.513 9.646,4.579 10.566,9.06C11.173,12.015 10.615,13.896 10.164,14.833C11.391,13.67 12.984,12.965 14.67,12.839C15.53,12.774 16.365,12.859 17.152,13.072C17.052,12.331 16.559,9.658 14.42,7.152C11.157,3.329 7.24,3.512 7.24,3.512L7.24,3.513ZM22.057,13.214L4.137,16.263C5.088,16.592 5.714,17.512 5.672,18.517C5.664,18.724 5.629,18.929 5.566,19.127C5.621,19.1 8.255,17.852 11.908,17.093C15.146,16.42 17.631,16.733 18.193,16.82C18.908,15.123 20.315,13.81 22.057,13.214ZM15.844,17.292C13.526,17.292 11.203,17.787 9.23,18.458C6.362,19.434 6.279,19.806 3.68,19.501C1.844,19.286 0,18.386 0,18.386C0,18.386 2.406,20.356 4.914,20.513C6.9,20.638 8.419,19.691 10.229,19.099C12.89,18.228 14.74,18.129 16.482,18.124C19.361,18.116 24,19.353 24,19.353C24,19.353 21.89,18.309 18.967,17.633C17.942,17.402 16.895,17.288 15.844,17.293L15.844,17.292Z" style="fill:white;fill-rule:nonzero;"/>
    </g>
</svg>
