<?xml version="1.0" encoding="UTF-8" standalone="no"?>
<!DOCTYPE svg PUBLIC "-//W3C//DTD SVG 1.1//EN" "http://www.w3.org/Graphics/SVG/1.1/DTD/svg11.dtd">
<svg width="100%" height="100%" viewBox="0 0 512 512" version="1.1" xmlns="http://www.w3.org/2000/svg" xmlns:xlink="http://www.w3.org/1999/xlink" xml:space="preserve" xmlns:serif="http://www.serif.com/" style="fill-rule:evenodd;clip-rule:evenodd;stroke-linejoin:round;stroke-miterlimit:2;">
    <g id="bg" transform="matrix(2.56,0,0,2.56,0,3.63798e-14)">
        <path d="M0,100C0,16 16,0 100,0C184,0 200,16 200,100C200,184 184,200 100,200C16,200 0,184 0,100" style="fill:rgb(19,190,249);fill-rule:nonzero;"/>
    </g>
    <g transform="matrix(13.2981,0,0,13.2981,114.422,96.4225)">
        <path d="M12.504,0L12.504,1.023L12.494,1.008L6.388,4.534L3.417,4.534L3.417,5.285L8.776,5.285L8.776,8.923L10.718,8.923L10.718,5.284L12.504,5.284L12.504,15.7C12.531,15.7 13.044,15.69 13.255,15.791L13.255,5.285L13.786,5.285L13.786,15.893C14.079,16.04 14.336,16.205 14.537,16.433L14.537,5.286L20.583,5.286L20.583,4.536L19.316,4.536L13.255,1.036L13.255,0L12.504,0ZM12.504,1.87L12.504,4.534L7.889,4.534L12.504,1.87ZM13.255,1.901L17.815,4.534L13.255,4.534L13.255,1.901ZM9.142,5.285L10.352,5.285L10.352,6.971L9.142,6.971L9.142,5.285ZM4.406,8.015L4.406,9.966L6.348,9.966L6.348,8.016L4.406,8.015ZM6.596,8.015L6.596,9.966L8.537,9.966L8.537,8.016L6.596,8.015ZM4.406,10.186L4.406,12.137L6.348,12.137L6.348,10.187L4.406,10.186ZM6.596,10.186L6.596,12.137L8.537,12.137L8.537,10.187L6.596,10.186ZM8.776,10.186L8.776,12.137L10.718,12.137L10.718,10.187L8.776,10.186ZM4.36,12.43C4.037,12.993 3.867,13.632 3.866,14.281C3.866,15.508 4.47,16.589 5.386,17.267C5.625,17.203 5.863,17.167 6.11,17.157C6.21,17.157 6.275,17.167 6.376,17.176C6.66,15.985 7.759,15.188 9.041,15.188C9.765,15.188 10.479,15.389 10.965,15.856C11.194,15.38 11.267,14.849 11.267,14.281C11.267,13.631 11.102,12.989 10.773,12.431L4.36,12.43ZM9.188,15.59C7.978,15.59 6.962,16.434 6.696,17.56C6.605,17.543 6.513,17.54 6.421,17.551C6.419,17.551 6.418,17.551 6.416,17.551C5.013,17.551 3.859,18.704 3.857,20.107C3.862,21.511 5.018,22.663 6.422,22.663C6.6,22.663 6.778,22.644 6.953,22.607C7.394,23.458 8.274,23.996 9.233,24C10.095,24 10.855,23.57 11.323,22.919C11.781,23.298 12.358,23.505 12.952,23.505C14.354,23.505 15.508,22.351 15.509,20.949C15.509,20.382 15.316,19.85 15.005,19.429C15.097,19.161 15.144,18.88 15.144,18.596C15.144,17.193 13.99,16.039 12.587,16.039C12.07,16.039 11.565,16.196 11.139,16.489C10.651,15.92 9.938,15.592 9.188,15.591L9.188,15.59Z" style="fill:white;fill-rule:nonzero;"/>
    </g>
</svg>
