<?xml version="1.0" encoding="UTF-8" standalone="no"?>
<!DOCTYPE svg PUBLIC "-//W3C//DTD SVG 1.1//EN" "http://www.w3.org/Graphics/SVG/1.1/DTD/svg11.dtd">
<svg width="100%" height="100%" viewBox="0 0 512 512" version="1.1" xmlns="http://www.w3.org/2000/svg" xmlns:xlink="http://www.w3.org/1999/xlink" xml:space="preserve" xmlns:serif="http://www.serif.com/" style="fill-rule:evenodd;clip-rule:evenodd;stroke-linejoin:round;stroke-miterlimit:2;">
    <g id="bg" transform="matrix(2.56,0,0,2.56,0,3.63798e-14)">
        <path d="M0,100C0,16 16,0 100,0C184,0 200,16 200,100C200,184 184,200 100,200C16,200 0,184 0,100" style="fill:rgb(92,221,139);fill-rule:nonzero;"/>
    </g>
    <g transform="matrix(12.0006,0,0,12.0006,111.992,111.997)">
        <path d="M11.759,0.955C7.688,0.955 3.829,3.22 1.699,6.729L1.539,6.992L1.423,7.276C-0.387,11.716 -0.765,16.394 2.044,19.735C4.714,22.909 8.265,23.063 11.521,23.043C14.777,23.023 17.844,22.561 20.516,21.011C22.75,19.714 24,16.917 24,14.53C24,12.142 23.276,9.832 22.118,7.187L22.006,6.93L21.858,6.692C19.683,3.2 15.83,0.955 11.758,0.955L11.759,0.955ZM11.759,4.823C14.678,4.823 16.949,6.128 18.575,8.737C20.651,13.484 20.651,16.461 18.575,17.666C15.459,19.474 7.341,20.025 5.005,17.246C3.447,15.393 3.447,12.556 5.005,8.736C6.589,6.128 8.84,4.823 11.759,4.823Z" style="fill:white;fill-rule:nonzero;"/>
    </g>
</svg>
